<svg xmlns="http://www.w3.org/2000/svg" xmlns:xlink="http://www.w3.org/1999/xlink" width="42" height="40" viewBox="0 0 42 40">
  <defs>
    <clipPath id="clip-path">
      <rect id="Ret칙ngulo_61" data-name="Ret칙ngulo 61" width="42" height="40" transform="translate(666.5 2775.5)" fill="#fff"/>
    </clipPath>
  </defs>
  <g id="Grupo_de_m치scara_7" data-name="Grupo de m치scara 7" transform="translate(-666.5 -2775.5)" opacity="0.795" clip-path="url(#clip-path)">
    <g id="phone-call" transform="translate(667.995 2777.03)">
      <path id="Caminho_6" data-name="Caminho 6" d="M10.656,15.217a30.928,30.928,0,0,0,4.746,6.4,27.136,27.136,0,0,0,7.523,5.338.81.81,0,0,0,.652.033,2.8,2.8,0,0,0,.9-.636,9.77,9.77,0,0,0,.825-.972c1.209-1.529,2.7-3.428,4.818-2.477.047.021.082.045.129.064l7.047,3.9c.022.012.047.033.066.045a3.015,3.015,0,0,1,1.323,2.637A6.943,6.943,0,0,1,37.656,32.9a7.077,7.077,0,0,1-3.388,2.88,15.929,15.929,0,0,1-4.179,1.093,14.717,14.717,0,0,1-6.383-.512,28.827,28.827,0,0,1-6.421-2.98l-.167-.1c-1.042-.627-2.17-1.3-3.275-2.086A40.037,40.037,0,0,1,2.991,19.347C.74,15.429-.488,11.2.182,7.168A8.644,8.644,0,0,1,3.259,1.621,8.488,8.488,0,0,1,9.39.046.888.888,0,0,1,10.1.483l4.519,7.346A2.228,2.228,0,0,1,15,10.287,4.841,4.841,0,0,1,13.27,12.15c-.242.2-.532.4-.838.615-1.011.706-2.16,1.52-1.767,2.477l-.009-.024Z" transform="translate(0 -0.002)"/>
    </g>
  </g>
</svg>
